<?xml version="1.0" encoding="utf-8"?>
<!DOCTYPE svg PUBLIC "-//W3C//DTD SVG 20010904//EN" "http://www.w3.org/TR/2001/REC-SVG-20010904/DTD/svg10.dtd">
<svg version="1.0" xmlns="http://www.w3.org/2000/svg" width="514pt" height="514pt" viewBox="0 0 514 514" style="" preserveAspectRatio="xMidYMid meet">
<g fill="#000000FF" stroke="#000000FF">
<path d="M 246.000 1.640 C 182.035 4.587 121.758 31.197 76.478 76.478 C 41.450 111.505 16.859 156.656 7.063 203.927 C 3.101 223.047 1.868 235.643 1.868 257.000 C 1.868 278.357 3.101 290.953 7.063 310.073 C 16.859 357.344 41.450 402.495 76.478 437.522 C 111.505 472.550 156.656 497.141 203.927 506.937 C 223.047 510.899 235.643 512.132 257.000 512.132 C 278.357 512.132 290.953 510.899 310.073 506.937 C 357.344 497.141 402.495 472.550 437.522 437.522 C 472.550 402.495 497.141 357.344 506.937 310.073 C 510.899 290.953 512.132 278.357 512.132 257.000 C 512.132 235.643 510.899 223.047 506.937 203.927 C 497.141 156.656 472.550 111.505 437.522 76.478 C 396.460 35.416 342.555 9.396 285.500 3.099 C 274.991 1.939 255.299 1.212 246.000 1.640 M 222.782 130.535 C 227.591 132.520 337.167 241.650 340.225 247.500 C 343.034 252.871 343.034 261.129 340.225 266.500 C 337.167 272.350 227.591 381.480 222.782 383.465 C 215.227 386.584 205.612 384.812 199.624 379.197 C 193.483 373.438 191.286 363.087 194.535 355.218 C 195.591 352.660 210.806 336.752 243.281 304.250 L 290.492 257.000 243.281 209.750 C 210.806 177.248 195.591 161.340 194.535 158.782 C 191.416 151.228 193.188 141.612 198.803 135.624 C 204.562 129.483 214.913 127.286 222.782 130.535 "/></g>
</svg>
