<svg width="567" height="567" viewBox="0 0 567 567" fill="none" xmlns="http://www.w3.org/2000/svg">
<path d="M253.945 2.10066C211.338 6.38466 163.76 23.35 127.592 47.1567C56.6104 93.8753 10.2784 171.045 1.95704 256.414C-5.10296 328.853 17.0397 403.15 62.6557 460.077C88.8077 492.714 119.792 517.537 158.046 536.499C266.454 590.235 397.614 568.719 483.17 483.165C505.972 460.363 521.804 438.203 536.513 408.505C612.518 255.035 535.137 69.094 372.91 15.386C334.153 2.55399 294.008 -1.92867 253.945 2.10066ZM192.834 245.53C226.325 269.247 257.225 290.291 261.501 292.295C268.446 295.547 270.777 295.934 283.278 295.905C295.152 295.877 298.372 295.383 304.477 292.655C308.437 290.887 339.937 269.414 374.477 244.938L437.278 200.435L437.621 286.675C437.86 346.629 437.514 374.589 436.486 378.405C434.57 385.521 425.693 394.478 418.608 396.445C411.102 398.529 155.454 398.529 147.949 396.445C140.993 394.514 132.037 385.558 130.106 378.602C127.852 370.479 128.017 200.099 130.278 201.427C131.196 201.966 159.345 221.813 192.834 245.53ZM418.404 170.045C424.522 171.743 433.926 179.827 431.945 181.685C425.861 187.385 300.276 274.831 296.068 276.297C288.958 278.774 275.629 278.679 269.477 276.109C265.564 274.474 139.298 186.122 134.658 181.771C132.758 179.991 140.516 172.795 146.716 170.586C151.054 169.041 174.206 168.714 282.612 168.671C371.293 168.637 414.925 169.078 418.404 170.045Z" fill="#1E2E33" stroke="#1E2E33" stroke-width="1.33333"/>
</svg>
