<?xml version="1.0" encoding="utf-8"?>
<!DOCTYPE svg PUBLIC "-//W3C//DTD SVG 20010904//EN" "http://www.w3.org/TR/2001/REC-SVG-20010904/DTD/svg10.dtd">
<svg version="1.0" xmlns="http://www.w3.org/2000/svg" width="514pt" height="514pt" viewBox="0 0 514 514" style="" preserveAspectRatio="xMidYMid meet">
<g fill="#000000FF" stroke="#000000FF">
<path d="M 241.000 9.591 C 175.448 15.245 122.766 39.557 79.463 84.137 C 16.142 149.326 -6.187 240.756 19.455 329.845 C 35.630 386.040 74.704 437.565 125.000 469.022 C 148.462 483.696 186.850 498.397 212.500 502.530 C 214.700 502.885 217.288 503.391 218.250 503.655 C 219.907 504.109 220.000 499.433 220.000 415.567 L 220.000 327.000 192.000 327.000 L 164.000 327.000 164.000 291.500 L 164.000 256.000 191.915 256.000 L 219.830 256.000 220.289 219.250 C 220.790 179.050 221.067 176.703 227.270 160.190 C 238.132 131.272 264.560 111.592 298.739 106.969 C 310.430 105.387 340.159 106.160 359.750 108.554 L 374.000 110.296 374.000 141.579 L 374.000 172.863 345.250 173.206 C 318.131 173.530 316.178 173.678 310.823 175.819 C 300.577 179.916 293.026 190.091 290.986 202.551 C 290.450 205.823 290.009 219.188 290.006 232.250 L 290.000 256.000 327.045 256.000 L 364.091 256.000 363.529 259.250 C 362.670 264.228 353.000 326.031 353.000 326.547 C 353.000 326.796 341.975 327.000 328.500 327.000 L 304.000 327.000 304.000 415.567 C 304.000 499.449 304.093 504.107 305.750 503.615 C 306.713 503.329 308.850 502.800 310.500 502.440 C 369.443 489.561 427.980 448.123 463.270 394.293 C 508.827 324.801 516.111 230.300 481.675 155.500 C 445.672 77.297 375.581 24.211 292.259 12.038 C 279.017 10.103 250.719 8.752 241.000 9.591 "/></g>
</svg>
