<?xml version="1.0" encoding="utf-8"?>
<!DOCTYPE svg PUBLIC "-//W3C//DTD SVG 20010904//EN" "http://www.w3.org/TR/2001/REC-SVG-20010904/DTD/svg10.dtd">
<svg version="1.0" xmlns="http://www.w3.org/2000/svg" width="514pt" height="514pt" viewBox="0 0 514 514" style="" preserveAspectRatio="xMidYMid meet">
<g fill="#000000FF" stroke="#000000FF">
<path d="M 238.869 8.025 C 161.717 13.610 90.647 55.619 47.741 121.000 C 38.908 134.459 27.463 157.463 22.149 172.437 C -0.869 237.301 3.245 307.297 33.644 368.000 C 95.554 491.626 244.637 541.768 367.893 480.420 C 491.421 418.937 541.767 269.361 480.420 146.107 C 460.540 106.166 430.508 72.368 393.000 47.726 C 380.035 39.208 354.020 26.333 340.000 21.494 C 308.280 10.548 271.565 5.658 238.869 8.025 M 336.558 105.477 C 380.165 112.550 405.379 139.156 410.947 183.974 C 412.358 195.332 412.358 318.668 410.947 330.026 C 405.259 375.810 378.575 403.007 333.500 408.962 C 327.004 409.820 304.189 410.043 251.500 409.765 C 185.855 409.419 177.744 409.201 171.000 407.601 C 130.927 398.097 108.300 372.265 103.053 330.026 C 101.642 318.668 101.642 195.332 103.053 183.974 C 108.583 139.459 133.708 112.762 176.921 105.482 C 188.757 103.488 324.268 103.484 336.558 105.477 "/></g>
<g fill="#000000FF" stroke="#000000FF">
<path d="M 188.467 133.952 C 167.483 135.896 153.797 142.510 144.360 155.267 C 138.886 162.666 136.435 167.887 133.685 178.000 C 131.753 185.106 131.625 188.884 131.256 249.986 C 130.837 319.446 131.281 328.954 135.547 341.840 C 138.454 350.622 145.373 361.445 151.378 366.605 C 157.234 371.636 168.102 376.567 178.000 378.683 C 185.758 380.341 192.651 380.500 257.000 380.500 C 321.318 380.500 328.238 380.341 335.911 378.687 C 351.454 375.336 361.933 369.140 369.653 358.733 C 375.194 351.264 378.059 345.052 380.603 335.000 C 382.377 327.986 382.500 322.928 382.500 257.000 C 382.500 191.072 382.377 186.014 380.603 179.000 C 378.059 168.948 375.194 162.736 369.653 155.267 C 362.160 145.167 351.800 138.883 336.959 135.438 C 330.347 133.903 321.950 133.678 263.000 133.457 C 226.425 133.320 192.885 133.543 188.467 133.952 M 275.756 177.506 C 305.456 184.502 329.243 208.374 336.655 238.624 C 339.119 248.679 338.867 267.148 336.127 277.378 C 328.199 306.972 305.251 329.360 275.376 336.647 C 266.221 338.881 247.816 338.890 238.704 336.666 C 208.235 329.230 184.770 305.748 177.321 275.241 C 175.110 266.186 175.126 247.752 177.353 238.624 C 185.370 205.754 212.003 181.154 245.039 176.104 C 253.015 174.885 267.421 175.542 275.756 177.506 M 346.633 161.630 C 348.689 162.606 351.107 165.033 352.654 167.673 C 359.688 179.676 349.897 194.561 336.309 192.524 C 327.727 191.237 320.833 181.998 322.374 173.846 C 323.272 169.092 326.448 164.307 330.241 161.995 C 334.273 159.536 341.864 159.367 346.633 161.630 "/></g>
<g fill="#000000FF" stroke="#000000FF">
<path d="M 244.206 206.557 C 234.751 209.102 227.825 213.175 220.500 220.500 C 199.577 241.423 199.748 273.263 220.896 294.000 C 249.619 322.166 297.271 308.612 307.492 269.369 C 310.472 257.927 308.970 245.067 303.264 233.171 C 299.671 225.682 288.318 214.329 280.829 210.736 C 269.030 205.076 255.460 203.527 244.206 206.557 "/></g>
</svg>
