<?xml version="1.0" encoding="utf-8"?>
<!DOCTYPE svg PUBLIC "-//W3C//DTD SVG 20010904//EN" "http://www.w3.org/TR/2001/REC-SVG-20010904/DTD/svg10.dtd">
<svg version="1.0" xmlns="http://www.w3.org/2000/svg" width="514pt" height="514pt" viewBox="0 0 514 514" style="" preserveAspectRatio="xMidYMid meet">
<g fill="#000000FF" stroke="#000000FF">
<path d="M 238.791 2.033 C 177.194 6.465 120.509 32.469 76.489 76.489 C 41.720 111.258 18.103 153.962 7.631 201.000 C -0.427 237.190 -0.445 276.832 7.580 312.727 C 29.106 409.012 105.085 485.082 201.000 506.377 C 237.101 514.392 277.000 514.407 312.727 506.420 C 360.557 495.727 402.521 472.572 437.546 437.546 C 478.325 396.767 502.899 346.795 510.594 289.000 C 512.818 272.300 512.818 241.700 510.594 225.000 C 500.022 145.598 455.582 78.007 386.977 36.986 C 343.564 11.029 289.851 -1.641 238.791 2.033 M 336.137 198.528 C 355.510 203.523 368.798 217.299 375.658 239.500 L 378.439 248.500 378.774 303.250 L 379.110 358.000 352.599 358.000 L 326.088 358.000 325.794 308.750 C 325.505 260.347 325.461 259.405 323.252 253.949 C 319.127 243.760 311.562 238.651 300.500 238.585 C 288.946 238.516 280.069 244.138 274.780 254.873 C 272.513 259.473 272.498 259.785 272.214 308.750 L 271.928 358.000 245.464 358.000 L 219.000 358.000 219.000 279.000 L 219.000 200.000 245.500 200.000 L 272.000 200.000 272.000 210.590 L 272.000 221.180 275.916 216.226 C 284.478 205.394 295.989 198.872 310.500 196.632 C 315.787 195.816 329.576 196.836 336.137 198.528 M 191.000 279.000 L 191.000 358.000 164.500 358.000 L 138.000 358.000 138.000 279.000 L 138.000 200.000 164.500 200.000 L 191.000 200.000 191.000 279.000 M 173.501 125.542 C 179.019 126.980 184.735 130.342 187.809 133.959 C 188.530 134.807 190.273 137.913 191.684 140.861 C 193.914 145.523 194.188 147.174 193.781 153.506 C 192.724 169.988 180.358 179.857 162.088 178.799 C 145.481 177.838 134.959 167.059 135.022 151.072 C 135.071 138.703 143.926 128.106 156.734 125.088 C 162.498 123.730 167.014 123.853 173.501 125.542 "/></g>
</svg>
