<?xml version="1.0" encoding="utf-8"?>
<!DOCTYPE svg PUBLIC "-//W3C//DTD SVG 20010904//EN" "http://www.w3.org/TR/2001/REC-SVG-20010904/DTD/svg10.dtd">
<svg version="1.0" xmlns="http://www.w3.org/2000/svg" width="514pt" height="514pt" viewBox="0 0 514 514" style="" preserveAspectRatio="xMidYMid meet">
<g fill="#000000FF" stroke="#000000FF">
<path d="M 239.371 1.994 C 177.162 6.458 120.693 32.284 76.489 76.489 C 17.379 135.598 -8.871 217.858 5.110 300.171 C 22.356 401.715 100.608 484.087 201.000 506.377 C 237.101 514.392 277.000 514.407 312.727 506.420 C 360.557 495.727 402.521 472.572 437.546 437.546 C 472.572 402.521 495.727 360.557 506.420 312.727 C 514.445 276.832 514.427 237.190 506.369 201.000 C 483.171 96.806 395.671 16.984 290.000 3.620 C 274.816 1.700 253.162 1.004 239.371 1.994 M 160.736 102.534 C 164.698 104.190 213.935 152.412 218.734 159.337 C 222.230 164.383 223.083 173.968 220.490 179.094 C 219.543 180.967 214.326 187.041 208.898 192.590 C 191.219 210.666 189.904 220.306 202.285 241.081 C 210.800 255.371 218.665 265.632 230.485 277.871 C 246.200 294.145 264.354 307.965 280.512 315.956 C 286.485 318.910 288.516 319.410 294.500 319.399 C 304.714 319.379 309.307 316.939 321.410 305.102 C 326.959 299.674 332.940 294.505 334.700 293.616 C 338.741 291.576 346.954 291.536 351.736 293.534 C 355.680 295.182 404.925 343.398 409.696 350.283 C 412.857 354.844 413.850 362.881 411.964 368.638 C 411.053 371.421 406.656 376.605 396.231 387.189 C 384.827 398.766 380.315 402.638 374.931 405.467 C 343.296 422.090 295.737 411.126 242.500 374.936 C 217.417 357.885 185.468 329.035 164.635 304.624 C 109.763 240.327 88.595 178.691 108.048 139.856 C 110.473 135.014 114.587 130.107 125.316 119.256 C 133.134 111.348 141.201 104.120 143.450 103.006 C 148.313 100.599 155.626 100.399 160.736 102.534 "/></g>
</svg>
