<?xml version="1.0" encoding="utf-8"?>
<!DOCTYPE svg PUBLIC "-//W3C//DTD SVG 20010904//EN" "http://www.w3.org/TR/2001/REC-SVG-20010904/DTD/svg10.dtd">
<svg version="1.0" xmlns="http://www.w3.org/2000/svg" width="514pt" height="514pt" viewBox="0 0 514 514" style="" preserveAspectRatio="xMidYMid meet">
<g fill="#000000FF" stroke="#000000FF">
<path d="M 238.791 2.033 C 177.194 6.465 120.509 32.469 76.489 76.489 C 41.720 111.258 18.103 153.962 7.631 201.000 C -0.427 237.190 -0.445 276.832 7.580 312.727 C 29.101 408.992 105.105 485.086 201.000 506.377 C 237.101 514.392 277.000 514.407 312.727 506.420 C 360.557 495.727 402.521 472.572 437.546 437.546 C 478.325 396.767 502.899 346.795 510.594 289.000 C 512.818 272.300 512.818 241.700 510.594 225.000 C 499.962 145.150 455.747 78.137 386.244 36.536 C 343.766 11.111 289.408 -1.609 238.791 2.033 M 332.000 154.095 C 358.468 155.355 363.840 156.154 371.639 159.994 C 391.073 169.561 396.000 189.180 396.000 257.000 C 396.000 329.729 390.013 349.173 365.332 356.600 C 344.741 362.798 176.268 362.988 151.158 356.842 C 139.639 354.023 131.442 347.807 127.016 338.534 C 120.171 324.192 118.000 304.557 118.000 257.000 C 118.000 200.369 121.374 179.446 132.493 167.140 C 136.970 162.183 146.464 157.305 154.023 156.076 C 159.908 155.120 200.264 153.103 223.500 152.604 C 245.971 152.122 308.646 152.983 332.000 154.095 "/></g>
<g fill="#000000FF" stroke="#000000FF">
<path d="M 223.241 256.905 L 223.500 307.986 265.718 282.743 C 288.938 268.859 307.937 257.275 307.938 257.000 C 307.939 256.598 247.542 220.146 227.849 208.662 L 222.982 205.824 223.241 256.905 "/></g>
</svg>
