<svg width="686" height="686" viewBox="0 0 686 686" fill="none" xmlns="http://www.w3.org/2000/svg">
<path d="M318.388 2.71067C236.259 8.62001 160.679 43.292 101.985 101.985C55.6267 148.344 24.1373 205.283 10.1747 268C-0.569342 316.253 -0.593342 369.109 10.1067 416.969C38.808 545.349 140.113 646.776 268 675.169C316.135 685.856 369.333 685.876 416.969 675.227C480.743 660.969 536.695 630.096 583.395 583.395C637.767 529.023 670.532 462.393 680.792 385.333C683.757 363.067 683.757 322.267 680.792 300C666.696 194.131 607.443 104.009 515.969 49.3147C458.085 14.7053 386.468 -2.18799 318.388 2.71067ZM388.577 86.1747C438.855 93.0627 480.825 112.992 513.265 145.381C529.003 161.095 541.459 178.44 552.009 199.333C560.284 215.717 571.219 245.304 569.58 246.877C569.077 247.359 559.072 250.436 547.345 253.715L526.025 259.675L521.227 246.171C510.832 216.917 499.647 198.153 481.583 179.665C463.98 161.651 446.023 150.352 420.917 141.495C378.231 126.436 319.06 126.163 275.195 140.823C235.777 153.996 205.532 180.823 185.985 219.951C168.295 255.361 158.924 313.271 162.471 365.277C168.377 451.908 198.881 508.1 255.333 536.343C299.241 558.309 371.52 561.683 420.175 544.036C451.612 532.635 479.109 509.413 491.925 483.444C498.733 469.647 501.293 458.504 501.293 442.667C501.293 422.293 496.712 407.835 485.511 392.855C481.137 387.007 463.808 372 461.428 372C460.896 372 459.735 375.939 458.848 380.753C451.072 422.959 429.144 454.215 396.667 469.389C378.959 477.663 370.437 479.309 345.333 479.309C320.221 479.309 311.695 477.66 294 469.383C265.609 456.101 249.219 435.345 244.359 406.524C242.491 395.444 242.491 393.041 244.361 381.595C250.381 344.763 279.596 317.011 322.424 307.44C339.287 303.672 365.784 302.253 388.407 303.907C399.549 304.721 410.048 305.753 411.736 306.2C414.545 306.945 414.728 306.689 413.904 303.173C405.523 267.424 384.531 250.713 348 250.713C326.06 250.713 309.364 257.021 296.337 270.233L288.008 278.681L269.372 266.34C259.121 259.553 250.72 253.495 250.701 252.877C250.584 249.025 269.389 230.24 281.055 222.555C301.637 208.997 324.892 203.212 354 204.405C380.868 205.508 401.303 212.156 419.587 225.743C441.82 242.267 457.233 272.315 461.568 307.585L463.107 320.101L475.195 326.345C513.668 346.216 537.472 376.511 545.633 415.993C549.125 432.891 548.403 462.019 544.093 478C540.396 491.715 528.685 515.517 520.036 526.897C510.797 539.055 489.869 558.587 476.679 567.364C445.763 587.935 412.776 598.1 366.333 601.367C307.453 605.511 250.92 591.899 209.373 563.577C194.407 553.373 170.179 528.561 159.649 512.651C129.697 467.395 115.564 412.899 115.564 342.667C115.564 272.435 129.697 217.939 159.649 172.683C171.019 155.505 194.82 131.493 211.333 120.543C258.285 89.4093 321.999 77.0547 388.577 86.1747Z" fill="black" stroke="black" stroke-width="1.33333"/>
<path d="M348.667 350.594C312.825 354.081 290.439 370.377 290.14 393.198C289.899 411.613 302.579 425.525 324.907 431.341C334.741 433.902 355.925 433.902 365.76 431.341C389.696 425.106 405.363 406.645 411.816 377.07C416.223 356.866 416.323 354.788 412.916 354.016C398.412 350.729 365.368 348.969 348.667 350.594Z" fill="black" stroke="black" stroke-width="1.33333"/>
</svg>
