<?xml version="1.0" encoding="utf-8"?>
<!DOCTYPE svg PUBLIC "-//W3C//DTD SVG 20010904//EN" "http://www.w3.org/TR/2001/REC-SVG-20010904/DTD/svg10.dtd">
<svg version="1.0" xmlns="http://www.w3.org/2000/svg" width="514pt" height="514pt" viewBox="0 0 514 514" style="" preserveAspectRatio="xMidYMid meet">
<g fill="#000000FF" stroke="#000000FF">
<path d="M 241.500 33.053 C 187.286 36.392 134.268 61.011 95.959 100.632 C 62.401 135.340 41.397 178.343 34.482 226.500 C 32.163 242.646 32.163 271.354 34.482 287.500 C 45.109 361.503 89.586 423.696 156.000 457.421 C 187.801 473.570 219.743 481.124 256.500 481.189 C 293.840 481.255 325.823 473.766 358.000 457.423 C 453.328 409.004 501.156 302.342 473.878 199.000 C 463.626 160.160 442.419 124.048 413.368 95.959 C 367.140 51.263 306.455 29.051 241.500 33.053 M 303.427 137.163 C 304.495 145.214 309.572 159.859 313.726 166.873 C 322.252 181.269 337.897 190.580 359.389 194.047 L 367.000 195.274 367.000 215.687 L 367.000 236.099 360.750 235.447 C 343.775 233.675 325.591 227.966 311.869 220.099 L 303.500 215.301 302.946 266.400 C 302.358 320.677 302.388 320.331 297.178 333.549 C 285.690 362.694 257.044 382.000 225.287 382.000 C 211.742 382.000 202.794 379.947 190.467 374.009 C 169.036 363.686 153.462 343.527 148.584 319.792 C 141.552 285.577 159.055 250.136 190.467 234.984 C 202.476 229.191 211.718 227.079 226.500 226.747 L 237.500 226.500 237.771 246.750 L 238.041 267.000 230.570 267.000 C 211.484 267.000 198.490 274.154 191.419 288.554 C 188.785 293.920 188.500 295.475 188.500 304.500 C 188.500 313.525 188.785 315.080 191.419 320.446 C 196.746 331.294 206.142 338.453 218.369 340.979 C 234.078 344.224 251.568 335.009 258.599 319.782 L 261.500 313.500 261.771 222.750 L 262.041 132.000 282.392 132.000 L 302.742 132.000 303.427 137.163 "/></g>
</svg>
