<svg width="686" height="686" viewBox="0 0 686 686" fill="none" xmlns="http://www.w3.org/2000/svg">
<path d="M318.388 2.71067C236.259 8.62001 160.679 43.292 101.985 101.985C55.6267 148.344 24.1373 205.283 10.1747 268C-0.569342 316.253 -0.593342 369.109 10.1067 416.969C38.808 545.349 140.113 646.776 268 675.169C316.135 685.856 369.333 685.876 416.969 675.227C480.743 660.969 536.695 630.096 583.395 583.395C637.767 529.023 670.532 462.393 680.792 385.333C683.757 363.067 683.757 322.267 680.792 300C666.696 194.131 607.443 104.009 515.969 49.3147C458.085 14.7053 386.468 -2.18799 318.388 2.71067ZM313.877 214.717C351.199 269.063 364.692 287.753 365.887 286.76C366.775 286.023 395.364 252.997 429.417 213.369L491.333 141.319L509.013 141.66L526.693 142L453.955 226.552C410.796 276.72 381.499 311.84 381.909 312.913C382.292 313.908 417.441 365.42 460.02 427.385C502.599 489.349 537.777 540.937 538.193 542.024C538.856 543.752 531.596 543.996 480.476 543.971L422 543.941L387.04 492.971C367.812 464.937 343.741 429.853 333.549 415.008L315.019 388.015L247.959 466.008L180.9 544H163.672C152.977 544 146.613 543.503 146.889 542.689C147.133 541.969 181.233 501.977 222.667 453.819C264.1 405.66 298.169 365.841 298.376 365.333C298.583 364.825 264.552 314.668 222.751 253.872C180.949 193.076 146.731 142.884 146.708 142.333C146.685 141.784 172.951 141.333 205.075 141.333H263.483L313.877 214.717Z" fill="black" stroke="black" stroke-width="1.33333"/>
<path d="M195.6 169.868C196.187 170.895 250.967 249.469 317.333 344.477L438 517.219L463.667 517.276C477.784 517.308 489.333 516.992 489.333 516.573C489.333 516.156 434.624 437.556 367.756 341.907L246.18 168H220.357C198.597 168 194.701 168.293 195.6 169.868Z" fill="black" stroke="black" stroke-width="1.33333"/>
</svg>
